# Blender 5.0.1
# www.blender.org
mtllib table_integrated.mtl
o cube_1
v -0.750000 -1.000000 0.000000
v -0.750000 -1.000000 1.000000
v -0.750000 1.000000 -0.000000
v -0.750000 1.000000 1.000000
v 0.750000 -1.000000 0.000000
v 0.750000 -1.000000 1.000000
v 0.750000 1.000000 -0.000000
v 0.750000 1.000000 1.000000
vn -1.0000 -0.0000 -0.0000
vn -0.0000 -1.0000 -0.0000
vn -0.0000 -0.0000 -1.0000
vn -0.0000 -0.0000 1.0000
vn -0.0000 1.0000 -0.0000
vn 1.0000 -0.0000 -0.0000
s 0
f 2//1 4//1 1//1
f 5//2 2//2 1//2
f 1//1 4//1 3//1
f 3//3 5//3 1//3
f 2//4 8//4 4//4
f 6//2 2//2 5//2
f 6//4 8//4 2//4
f 4//5 8//5 3//5
f 7//3 5//3 3//3
f 3//5 8//5 7//5
f 7//6 6//6 5//6
f 8//6 6//6 7//6
